<svg xmlns="http://www.w3.org/2000/svg" width="120" height="34" viewBox="0 0 120 34"><g fill="currentColor" fill-rule="evenodd"><path d="M11.477 23.566c2.591 0 4.658-.727 6.201-2.182 1.543-1.455 2.314-3.426 2.314-5.913s-.771-4.458-2.314-5.913c-1.543-1.455-3.61-2.182-6.2-2.182h-5.48v16.19h5.48zM0 2.414h11.773c2.814 0 5.3.54 7.46 1.623 2.16 1.082 3.838 2.606 5.036 4.57 1.196 1.965 1.795 4.253 1.795 6.864 0 2.611-.599 4.9-1.795 6.865-1.198 1.964-2.877 3.487-5.036 4.57-2.16 1.081-4.646 1.622-7.46 1.622H0V2.414zM42.398 22.54c.95-1.007 1.425-2.356 1.425-4.047 0-1.691-.475-3.04-1.425-4.048-.95-1.007-2.166-1.51-3.647-1.51-1.48 0-2.702.503-3.665 1.51-.962 1.007-1.444 2.357-1.444 4.048 0 1.691.482 3.04 1.444 4.048.963 1.007 2.185 1.51 3.665 1.51 1.481 0 2.697-.503 3.647-1.51m-9.292 4.961c-1.666-.882-2.969-2.108-3.906-3.675-.94-1.566-1.407-3.344-1.407-5.334 0-1.99.468-3.768 1.407-5.335.937-1.567 2.24-2.791 3.906-3.675 1.665-.882 3.548-1.324 5.645-1.324 2.098 0 3.974.442 5.628 1.324 1.653.884 2.95 2.108 3.887 3.675.938 1.567 1.407 3.345 1.407 5.335 0 1.99-.47 3.768-1.407 5.334-.938 1.567-2.234 2.793-3.887 3.675-1.654.883-3.53 1.325-5.628 1.325-2.097 0-3.98-.442-5.645-1.325M69.949 10.397c1.518 1.493 2.277 3.707 2.277 6.641v11.49H66.45V17.933c0-1.591-.346-2.78-1.037-3.562-.691-.784-1.69-1.176-2.998-1.176-1.457 0-2.617.455-3.48 1.362-.865.908-1.296 2.257-1.296 4.048v9.923h-5.776V8.458h5.516v2.35c.765-.845 1.716-1.498 2.85-1.959 1.136-.46 2.382-.69 3.74-.69 2.468 0 4.462.746 5.98 2.238M81.783 13.717c-.888.746-1.432 1.766-1.629 3.059h9.812c-.198-1.269-.74-2.282-1.63-3.04-.889-.76-1.975-1.138-3.258-1.138-1.308 0-2.406.373-3.295 1.119m13.551 6.454H80.228c.271 1.244.913 2.226 1.926 2.947 1.012.721 2.114 1.082 3.62 1.082 1.555 0 3.107-.456 4.255-1.918l4.18 2.56c-1.687 2.7-4.824 4.021-8.427 4.021-2.247 0-4.234-.442-5.961-1.324-1.728-.883-3.06-2.108-3.998-3.675-.938-1.567-1.407-3.345-1.407-5.335 0-1.964.462-3.736 1.388-5.316a9.76 9.76 0 0 1 3.814-3.693c1.616-.883 3.424-1.325 5.423-1.325 1.95 0 3.715.423 5.294 1.269 1.58.845 2.82 2.058 3.722 3.637.9 1.58 1.351 3.414 1.351 5.502 0 .883-.074 1.568-.074 1.568M100.687 16.937h5.389V4.965h-5.389zM119.99 16.937c0 3.059-.47 6.038-1.407 8.935a28.842 28.842 0 0 1-4.036 8.002l-4.146-2.052a25.696 25.696 0 0 0 3.573-7.032 25.08 25.08 0 0 0 1.24-7.853c0-2.71-.414-5.328-1.24-7.853a25.714 25.714 0 0 0-3.573-7.032L114.547 0a28.844 28.844 0 0 1 4.036 8.002 28.824 28.824 0 0 1 1.407 8.935M106.992 25.337c0-1.947-1.617-3.525-3.61-3.525-1.994 0-3.61 1.578-3.61 3.525 0 1.947 1.616 3.526 3.61 3.526 1.993 0 3.61-1.579 3.61-3.526"/></g></svg>