<svg width="20" height="16" xmlns="http://www.w3.org/2000/svg"><g fill="none" fill-rule="evenodd"><path stroke="currentColor" stroke-width="2" stroke-linejoin="round" d="M1 1.885h18v12.229H1z"/><g fill="currentColor" fill-rule="nonzero"><path d="M.4 1.71v12.432h19.305V1.71H.4zM1.747 3.09h2.165C3.66 4.188 2.816 5.052 1.747 5.312v-2.22zm0 9.67v-2.22c1.069.26 1.912 1.124 2.165 2.22H1.747zm16.611 0h-2.165c.253-1.096 1.096-1.96 2.165-2.22v2.22zm0-3.629c-1.813.296-3.25 1.77-3.538 3.629H5.285c-.289-1.86-1.725-3.333-3.538-3.629V6.72c1.813-.296 3.25-1.769 3.538-3.629h9.535c.289 1.86 1.725 3.333 3.538 3.63v2.411zm0-3.82c-1.069-.26-1.912-1.124-2.165-2.22h2.165v2.22z"/><path d="M10.053 5.394c-1.362 0-2.47 1.136-2.47 2.532 0 1.397 1.108 2.533 2.47 2.533 1.361 0 2.469-1.136 2.469-2.533 0-1.396-1.108-2.532-2.47-2.532zm0 3.683c-.62 0-1.123-.516-1.123-1.15 0-.635.504-1.152 1.123-1.152.618 0 1.122.517 1.122 1.151 0 .635-.504 1.151-1.122 1.151z"/></g></g></svg>