<?xml version="1.0" encoding="UTF-8"?>
<svg width="117px" height="34px" viewBox="0 0 117 34" version="1.1" xmlns="http://www.w3.org/2000/svg" xmlns:xlink="http://www.w3.org/1999/xlink">
    <!-- Generator: Sketch 60.1 (88133) - https://sketch.com -->
    <title>Logo</title>
    <desc>Created with Sketch.</desc>
    <defs>
        <polygon id="path-1" points="0 34.0197929 117 34.0197929 117 0.000364285714 0 0.000364285714"></polygon>
    </defs>
    <g id="Page-1" stroke="none" stroke-width="1" fill="none" fill-rule="evenodd">
        <g id="Done---Landing-Page" transform="translate(-100.000000, -42.000000)">
            <g id="Logo_Done_blk" transform="translate(100.000000, 42.000000)">
                <g id="Group-13">
                    <path d="M11.19105,23.6681286 C13.71825,23.6681286 15.73299,22.9371286 17.23761,21.4763429 C18.74223,20.0155571 19.49454,18.0362714 19.49454,15.5372714 C19.49454,13.0407 18.74223,11.0602 17.23761,9.59941429 C15.73299,8.13741429 13.71825,7.40762857 11.19105,7.40762857 L5.84883,7.40762857 L5.84883,23.6681286 L11.19105,23.6681286 Z M0,2.4242 L11.48004,2.4242 C14.22369,2.4242 16.64793,2.9682 18.75393,4.05377143 C20.85993,5.14055714 22.49559,6.67055714 23.66442,8.64377143 C24.83091,10.6169857 25.41474,12.9156286 25.41474,15.5372714 C25.41474,18.1601286 24.83091,20.4587714 23.66442,22.4319857 C22.49559,24.4052 20.85993,25.9352 18.75393,27.0207714 C16.64793,28.1075571 14.22369,28.6515571 11.48004,28.6515571 L0,28.6515571 L0,2.4242 Z" id="Fill-1" fill="#000000"></path>
                    <path d="M41.342067,22.6375643 C42.268707,21.6260643 42.730857,20.2709214 42.730857,18.5721357 C42.730857,16.87335 42.268707,15.5194214 41.342067,14.5079214 C40.415427,13.4964214 39.230217,12.9900643 37.785267,12.9900643 C36.342657,12.9900643 35.150427,13.4964214 34.212087,14.5079214 C33.273747,15.5194214 32.804577,16.87335 32.804577,18.5721357 C32.804577,20.2709214 33.273747,21.6260643 34.212087,22.6375643 C35.150427,23.6490643 36.342657,24.1554214 37.785267,24.1554214 C39.230217,24.1554214 40.415427,23.6490643 41.342067,22.6375643 M32.280417,27.6209929 C30.656457,26.7345643 29.385837,25.5032786 28.472067,23.9295643 C27.557127,22.3570643 27.100827,20.57085 27.100827,18.5721357 C27.100827,16.5746357 27.557127,14.7884214 28.472067,13.2147071 C29.385837,11.6409929 30.656457,10.4109214 32.280417,9.52449286 C33.904377,8.63806429 35.740107,8.19363571 37.785267,8.19363571 C39.831597,8.19363571 41.660307,8.63806429 43.273737,9.52449286 C44.884827,10.4109214 46.148427,11.6409929 47.064537,13.2147071 C47.977137,14.7884214 48.434607,16.5746357 48.434607,18.5721357 C48.434607,20.57085 47.977137,22.3570643 47.064537,23.9295643 C46.148427,25.5032786 44.884827,26.7345643 43.273737,27.6209929 C41.660307,28.5074214 39.831597,28.9506357 37.785267,28.9506357 C35.740107,28.9506357 33.904377,28.5074214 32.280417,27.6209929" id="Fill-3" fill="#000000"></path>
                    <path d="M68.205735,10.4420071 C69.685785,11.9404357 70.425225,14.1637929 70.425225,17.1120786 L70.425225,28.6514357 L64.794015,28.6514357 L64.794015,18.01065 C64.794015,16.41265 64.457055,15.2190071 63.783135,14.43215 C63.109215,13.6452929 62.134605,13.2518643 60.859305,13.2518643 C59.438925,13.2518643 58.307535,13.7084357 57.465135,14.61915 C56.622735,15.5310786 56.202705,16.8874357 56.202705,18.6857929 L56.202705,28.6514357 L50.570325,28.6514357 L50.570325,8.49429286 L55.948815,8.49429286 L55.948815,10.8548643 C56.695275,10.0060786 57.621915,9.35036429 58.728735,8.88772143 C59.835555,8.42507857 61.051185,8.19436429 62.375625,8.19436429 C64.782315,8.19436429 66.725685,8.94357857 68.205735,10.4420071" id="Fill-5" fill="#000000"></path>
                    <path d="M79.745211,13.77595 C78.879411,14.5251643 78.349401,15.5500214 78.157521,16.8480929 L87.723441,16.8480929 C87.531561,15.5743071 87.001551,14.5567357 86.135751,13.7953786 C85.268781,13.0328071 84.208761,12.6515214 82.958031,12.6515214 C81.681561,12.6515214 80.612181,13.0267357 79.745211,13.77595 M92.958021,20.2578071 L78.228891,20.2578071 C78.493311,21.5073071 79.119261,22.4933071 80.106741,23.2170214 C81.093051,23.94195 82.168281,24.3038071 83.636631,24.3038071 C85.152951,24.3038071 86.665761,23.8460214 87.786621,22.37795 L91.861731,24.9498071 C90.216711,27.6613071 87.157161,28.9873071 83.644821,28.9873071 C81.453411,28.9873071 79.515891,28.5440929 77.832261,27.6576643 C76.147461,26.7712357 74.847591,25.53995 73.933821,23.96745 C73.018881,22.3937357 72.561411,20.6075214 72.561411,18.6088071 C72.561411,16.6355929 73.013031,14.8566643 73.915101,13.2695929 C74.818341,11.6837357 76.057371,10.4475929 77.633361,9.56116429 C79.209351,8.67473571 80.972541,8.23152143 82.921761,8.23152143 C84.823011,8.23152143 86.545251,8.65530714 88.083801,9.50409286 C89.624691,10.3540929 90.834471,11.5720214 91.713141,13.1578786 C92.590641,14.7437357 93.030561,16.5858071 93.030561,18.6840929 C93.030561,19.5693071 92.958021,20.2578071 92.958021,20.2578071" id="Fill-7" fill="#000000"></path>
                    <mask id="mask-2" fill="white">
                        <use xlink:href="#path-1"></use>
                    </mask>
                    <g id="Clip-10"></g>
                    <polygon id="Fill-9" fill="#000000" mask="url(#mask-2)" points="98.17821 17.0088643 103.43268 17.0088643 103.43268 4.98622143 98.17821 4.98622143"></polygon>
                    <path d="M117.000117,17.0103214 C117.000117,20.0824643 116.542647,23.07325 115.627707,25.9838929 C114.712767,28.8933214 113.401197,31.5720357 111.692997,34.0200357 L107.650647,31.9593929 C109.165797,29.7858214 110.326437,27.4325357 111.133737,24.8971071 C111.939867,22.3616786 112.343517,19.73275 112.343517,17.0103214 C112.343517,14.2878929 111.939867,11.6589643 111.133737,9.12353571 C110.326437,6.58810714 109.165797,4.23482143 107.650647,2.06003571 L111.692997,0.000607142857 C113.401197,2.44860714 114.712767,5.12732143 115.627707,8.03675 C116.542647,10.9461786 117.000117,13.9381786 117.000117,17.0103214" id="Fill-11" fill="#000000" mask="url(#mask-2)"></path>
                    <path d="M104.325507,25.4468143 C104.325507,23.4918143 102.749517,21.9059571 100.806147,21.9059571 C98.861607,21.9059571 97.285617,23.4918143 97.285617,25.4468143 C97.285617,27.4018143 98.861607,28.9876714 100.806147,28.9876714 C102.749517,28.9876714 104.325507,27.4018143 104.325507,25.4468143" id="Fill-12" fill="#000000" mask="url(#mask-2)"></path>
                </g>
            </g>
        </g>
    </g>
</svg>