<svg width="26" height="26" viewBox="0 0 26 26" version="1.1" xmlns="http://www.w3.org/2000/svg" xmlns:xlink="http://www.w3.org/1999/xlink"><title>notification</title><desc>Created with Sketch.</desc><g id="notification" stroke="none" stroke-width="1" fill="none" fill-rule="evenodd"><path d="M21.1467565,16.2529959 C21.1467565,17.2429355 20.3600566,18.0454405 19.389613,18.0454405 L6.61038703,18.0454405 C5.63994344,18.0454405 4.85324347,17.2429357 4.85324347,16.2529959 C4.85324347,13.9832764 7.7285693,11.914955 7.7285693,10.9604409 L7.7285693,8.70932262 C7.7285693,5.73950327 10.0886692,3.33198901 13,3.33198901 C15.9113308,3.33198901 18.2714307,5.73950327 18.2714307,8.70932262 L18.2714307,10.9604409 C18.2714307,11.914955 21.1467565,13.9852295 21.1467565,16.2529959 Z" id="Path" stroke="currentColor" stroke-width="2"/><path d="M15.4890925,20.4246278 C15.4890925,21.5695433 14.3746879,22.4976807 13,22.4976807 C11.6253121,22.4976807 10.5109075,21.5695433 10.5109075,20.4246278" id="Path" stroke="currentColor" stroke-width="2"/></g></svg>