<svg width="26" height="26" viewBox="0 0 26 26" version="1.1" xmlns="http://www.w3.org/2000/svg" xmlns:xlink="http://www.w3.org/1999/xlink"><title>wallet</title><desc>Created with Sketch.</desc><g id="wallet" stroke="none" stroke-width="1" fill="none" fill-rule="evenodd"><circle id="Oval-Copy-2" stroke="currentColor" stroke-width="2" cx="13" cy="13" r="12"/><path d="M16.8615006,14.5987314 C16.8615006,15.3050811 16.6083249,15.9156814 16.1019658,16.4305507 C15.5956067,16.94542 14.8616098,17.2751867 13.899953,17.4198608 L13.899953,18.8368081 L12.3681181,18.8368081 L12.3681181,17.4709219 C11.7298503,17.4283708 11.1256326,17.3198669 10.5554467,17.145407 C9.98526087,16.9709472 9.51294981,16.7560669 9.1384994,16.5007598 L9.96824333,14.6370273 C10.3682245,14.9008446 10.8320254,15.1135973 11.3596601,15.2752918 C11.8872948,15.4369863 12.4064114,15.5178324 12.9170256,15.5178324 C13.8871926,15.5178324 14.3722688,15.2752943 14.3722688,14.7902108 C14.3722688,14.5349037 14.2339795,14.3455537 13.9573968,14.2221553 C13.6808142,14.0987569 13.236161,13.9689777 12.6234239,13.8328139 C11.9511152,13.6881399 11.389448,13.5328304 10.9384055,13.3668808 C10.4873629,13.2009312 10.100153,12.9349903 9.77676396,12.5690501 C9.45337496,12.2031099 9.29168289,11.7095236 9.29168289,11.0882763 C9.29168289,10.356396 9.55549627,9.72877541 10.0831309,9.20539585 C10.6107656,8.68201629 11.3724204,8.36075968 12.3681181,8.24161636 L12.3681181,6.83743432 L13.899953,6.83743432 L13.899953,8.21608578 C14.3850365,8.25863696 14.850965,8.34373805 15.2977524,8.4713916 C15.7445399,8.59904516 16.1423875,8.76499228 16.4913072,8.96923796 L15.7126244,10.8457358 C14.8616007,10.386183 14.0361201,10.15641 13.2361579,10.15641 C12.7340539,10.15641 12.3681192,10.2308735 12.1383428,10.3798026 C11.9085664,10.5287318 11.79368,10.7223368 11.79368,10.9606234 C11.79368,11.19891 11.9298417,11.3776223 12.2021693,11.4967656 C12.4744969,11.6159089 12.9127675,11.7393055 13.5169943,11.8669591 C14.1978132,12.0116331 14.761608,12.1669426 15.2083954,12.3328922 C15.6551828,12.4988418 16.0423928,12.7626552 16.3700369,13.1243403 C16.697681,13.4860253 16.8615006,13.9774841 16.8615006,14.5987314 Z" id="$-copy" fill="currentColor" fill-rule="nonzero"/></g></svg>