<svg height="64" viewBox="0 0 64 64" width="64" xmlns="http://www.w3.org/2000/svg"><g fill="none"><path d="m0 0h64v64h-64z" fill="#fff"/><g fill="currentColor"><path d="m17.694 14.832h8v18h-8z"/><circle cx="21.194" cy="45.332" r="5.500009"/><path d="m40.662 32c0-4.09-.641-7.99-1.924-11.7s-2.964-7.037-5.044-9.984l5.408-3.484c2.936237 3.414336 5.24272 7.323036 6.812 11.544 1.595 4.264 2.392 8.805 2.392 13.624s-.797 9.36-2.392 13.624c-1.56928 4.220964-3.875763 8.129664-6.812 11.544l-5.408-3.484c2.08-2.947 3.761-6.275 5.044-9.984 1.283-3.71 1.924-7.61 1.924-11.7z"/></g></g></svg>